<svg role="img" viewBox="0 0 24 24" xmlns="http://www.w3.org/2000/svg"><title>Karakeep</title><path d="M22.582 0.054H1.418C0.635 0.054 0 0.69 0 1.472V22.528C0 23.311 0.635 23.946 1.418 23.946H22.582C23.365 23.946 24 23.311 24 22.528V1.472C24 0.69 23.365 0.054 22.582 0.054M10.487 20.437C10.487 20.535 10.448 20.629 10.379 20.699 10.309 20.768 10.215 20.807 10.117 20.807H3.592C3.494 20.807 3.4 20.768 3.33 20.699 3.261 20.629 3.222 20.535 3.222 20.437V3.485C3.222 3.387 3.261 3.293 3.33 3.223 3.4 3.154 3.494 3.115 3.592 3.115H10.014C10.218 3.115 10.384 3.281 10.384 3.485V9.937S10.349 12.713 10.487 14.892ZM20.675 20.437C20.675 20.573 20.6 20.699 20.48 20.764 20.36 20.828 20.214 20.822 20.1 20.747L17.125 18.802C16.996 18.718 16.829 18.722 16.705 18.812L14.097 20.699C13.997 20.771 13.867 20.787 13.752 20.741 13.653 20.672 13.594 20.56 13.593 20.439V7.274C13.946 7.204 14.339 7.168 14.793 7.168 17.022 7.168 20.675 8.425 20.675 11.978Z"/></svg>