<svg role="img" viewBox="0 0 24 24" xmlns="http://www.w3.org/2000/svg"><title>Slackware</title><path d="M12.924 1.228C12.34 1.218 11.673 1.228 11.439 1.255 8.979 1.537 7.301 2.555 6.686 4.146 6.468 4.698 6.412 5.148 6.443 5.918 6.491 7.128 6.862 7.922 7.705 8.66 8.93 9.72 10.685 10.168 13.703 10.168 16.44 10.168 17.413 10.581 17.619 11.843 17.932 13.71 16.049 14.913 13.205 14.67 11.327 14.51 9.709 13.758 8.982 12.703 8.854 12.502 8.736 12.295 8.627 12.083 8.245 11.323 7.987 11.105 7.451 11.105 7.021 11.11 6.719 11.27 6.533 11.599L6.4 11.839V15.869L6.537 16.165C6.702 16.509 6.937 16.711 7.281 16.795 7.631 16.885 8.075 16.759 8.701 16.393L9.201 16.103 10.027 16.288C11.847 16.691 12.777 16.811 14.092 16.811 15.195 16.816 15.64 16.765 16.547 16.526 17.671 16.229 18.521 15.741 19.264 14.956 20.064 14.112 20.414 13.103 20.361 11.809 20.292 10.181 19.666 9.111 18.361 8.395 17.401 7.87 16.069 7.605 13.984 7.515 11.942 7.429 11.19 7.36 10.469 7.195 9.959 7.075 9.684 6.945 9.393 6.68 8.74 6.091 8.803 4.925 9.529 4.198 10.171 3.561 11.04 3.27 12.303 3.27 13.735 3.275 14.696 3.54 15.715 4.225 15.9 4.352 16.436 4.845 16.908 5.317 17.794 6.219 18.043 6.399 18.414 6.399 18.658 6.399 19.004 6.236 19.146 6.055 19.406 5.726 19.449 5.425 19.449 3.855 19.449 2.195 19.406 1.945 19.072 1.573 18.685 1.148 18.224 1.153 17.322 1.604L16.732 1.901 16.102 1.731C14.606 1.339 14.064 1.254 12.924 1.227ZM0 13.775V22.775H24V21.775H1V13.775Z"/></svg>