<svg role="img" viewBox="0 0 24 24" xmlns="http://www.w3.org/2000/svg"><title>ReactOS</title><path d="M20.21 24C19.062 23.993 17.733 23.666 16.32 23.085 13.497 21.922 10.28 19.713 7.284 16.718 4.289 13.723 2.075 10.505 0.913 7.68-0.25 4.857-0.383 2.36 0.988 0.989 2.358-0.38 4.855-0.248 7.679 0.915 7.985 1.04 8.296 1.18 8.611 1.33 8.28 1.443 7.953 1.57 7.637 1.713L7.496 1.655C4.832 0.558 2.698 0.519 1.607 1.609 0.517 2.7 0.557 4.83 1.653 7.494 2.75 10.157 4.888 13.287 7.8 16.198 10.71 19.109 13.844 21.248 16.508 22.345 19.172 23.442 21.298 23.481 22.388 22.39 23.479 21.3 23.444 19.17 22.347 16.506 22.239 16.243 22.117 15.975 21.989 15.703 22.123 15.386 22.239 15.061 22.343 14.73 22.625 15.27 22.873 15.8 23.087 16.319 24.25 19.142 24.379 21.639 23.008 23.01 22.323 23.695 21.357 24.007 20.209 24ZM3.79 24C2.642 24.008 1.673 23.695 0.988 23.01-0.382 21.64-0.25 19.142 0.913 16.319 1.148 15.747 1.43 15.159 1.749 14.559 1.847 14.892 1.961 15.219 2.089 15.537 1.934 15.856 1.789 16.179 1.653 16.506 0.556 19.169 0.521 21.3 1.611 22.39 2.702 23.481 4.832 23.441 7.496 22.345 8.418 21.965 10.517 20.655 11.522 20.037 11.738 20.199 11.955 20.357 12.171 20.511 11.014 21.244 8.756 22.641 7.679 23.085 6.267 23.666 4.939 23.992 3.791 24ZM13.543 19.542C13.329 19.402 13.114 19.26 12.898 19.109 14.059 18.21 15.162 17.238 16.2 16.198 19.112 13.287 21.25 10.158 22.347 7.494 23.444 4.83 23.479 2.7 22.389 1.609 21.298 0.519 19.172 0.554 16.509 1.651L16.437 1.68C16.113 1.537 15.783 1.411 15.447 1.301 15.742 1.161 16.034 1.029 16.321 0.911 19.145-0.252 21.642-0.381 23.012 0.989S24.25 4.853 23.087 7.677C21.925 10.5 19.711 13.723 16.717 16.717 15.716 17.721 14.656 18.664 13.543 19.542ZM15.493 20.698C15.168 20.528 13.695 19.625 13.358 19.425 14.36 18.619 15.781 17.455 16.754 16.481 18.472 14.763 20.735 11.694 21.916 9.926 21.908 10.037 21.823 12.416 21.811 12.526 21.428 16.229 18.98 19.395 15.493 20.698ZM8.565 20.664C5.158 19.356 2.522 15.954 2.278 12.466 2.268 12.315 2.218 12.067 2.224 11.482 2.231 10.88 2.28 10.059 2.383 10.199 3.419 11.619 6.359 15.654 7.735 17.029 8.708 18.002 9.662 18.653 10.664 19.459 9.968 19.868 9.268 20.27 8.564 20.664ZM11.995 18.456C10.78 17.533 9.629 16.527 8.552 15.446 6.012 12.906 4.09 10.192 2.984 7.864 4.434 4.267 7.957 1.726 12.071 1.726 16.122 1.726 19.601 4.191 21.091 7.702 19.998 10.065 18.046 12.847 15.448 15.445 14.368 16.527 13.215 17.533 11.996 18.456Z"/></svg>