<svg role="img" viewBox="0 0 24 24" xmlns="http://www.w3.org/2000/svg"><title>Fawry</title><path d="M1.834 18.305C0.774 16.711 0.204 14.945 0.044 13.044-0.238 9.474 0.84 6.34 3.318 3.74 5.311 1.65 7.788 0.435 10.652 0.11 13.534-0.215 16.19 0.435 18.618 2.017 18.845 3.029 18.655 3.992 18.287 4.942 17.753 6.34 16.974 7.592 16.097 8.793 15.92 9.044 15.65 9.283 15.827 9.633 16.024 9.995 16.367 9.866 16.68 9.842 17.33 9.78 17.974 9.743 18.624 9.676 18.888 9.651 18.992 9.719 18.955 10.013 18.882 10.485 18.845 10.97 18.795 11.448 18.771 11.688 18.795 11.908 19.059 12 19.329 12.098 19.525 11.982 19.685 11.76 20.917 9.989 22.021 8.15 22.322 5.954 25.014 10.16 24.412 16.134 20.912 20.009 17.14 24.173 10.991 25.179 6.09 22.432 5.943 22.352 5.808 22.254 5.673 22.162 6.563 21.99 7.451 21.788 8.291 21.432 10.573 20.488 12.559 19.09 14.405 17.495 14.687 17.25 14.859 17.201 15.105 17.508 15.313 17.771 15.576 17.992 15.797 18.238 15.969 18.428 16.165 18.556 16.435 18.464 16.699 18.378 16.723 18.139 16.748 17.919 16.999 15.877 17.238 13.829 17.496 11.786 17.551 11.339 17.355 11.106 16.895 11.149 14.804 11.32 12.707 11.499 10.615 11.689 10.107 11.737 9.965 12.111 10.303 12.504 10.579 12.835 10.879 13.142 11.198 13.424 11.492 13.675 11.511 13.841 11.198 14.098 9.91 15.171 8.58 16.183 7.108 16.986 5.495 17.863 3.858 18.654 1.932 18.366H1.939C1.939 18.305 1.902 18.28 1.834 18.293"/></svg>